<svg xmlns="http://www.w3.org/2000/svg" xmlns:xlink="http://www.w3.org/1999/xlink" width="100" zoomAndPan="magnify" viewBox="0 0 75 74.999997" height="100" preserveAspectRatio="xMidYMid meet" version="1.0"><defs><clipPath id="99be790b62"><path d="M 0 16.332031 L 75 16.332031 L 75 65.082031 L 0 65.082031 Z M 0 16.332031 " clip-rule="nonzero"/></clipPath></defs><g clip-path="url(#99be790b62)"><path fill="#000000" d="M 31.417969 51.84375 C 27.910156 49.648438 25.566406 45.644531 25.566406 41.074219 C 25.566406 38.117188 26.546875 35.402344 28.1875 33.257812 C 28.308594 32.957031 28.484375 32.667969 28.703125 32.402344 C 33.222656 27.023438 39.675781 23.625 46.886719 22.824219 C 52.160156 22.238281 57.375 23.128906 62.015625 25.296875 C 62.015625 25.296875 64.601562 20.132812 65.71875 17.46875 C 65.953125 16.914062 66.332031 16.425781 66.972656 16.375 C 67.597656 16.324219 68.183594 16.691406 68.375 17.257812 L 74.628906 35.230469 C 74.9375 36.121094 74.75 37.105469 74.128906 37.84375 C 73.507812 38.585938 72.542969 38.976562 71.539062 38.894531 L 51.566406 37.273438 C 50.953125 37.222656 50.433594 36.769531 50.34375 36.179688 C 50.242188 35.589844 50.652344 35.117188 51.1875 34.785156 C 53.117188 33.605469 57.308594 30.691406 57.308594 30.691406 C 54.277344 29.570312 51.015625 29.074219 47.691406 29.445312 C 46.328125 29.59375 45.003906 29.867188 43.730469 30.257812 C 47.277344 32.445312 49.65625 36.46875 49.65625 41.074219 C 49.65625 44.632812 48.234375 47.84375 45.953125 50.128906 C 41.453125 55.289062 35.136719 58.550781 28.09375 59.332031 C 22.820312 59.917969 17.609375 59.027344 12.964844 56.855469 C 12.964844 56.855469 10.382812 62.019531 9.261719 64.683594 C 9.027344 65.242188 8.652344 65.726562 8.007812 65.777344 C 7.386719 65.832031 6.796875 65.464844 6.609375 64.898438 L 0.351562 46.925781 C 0.0429688 46.03125 0.230469 45.050781 0.851562 44.308594 C 1.472656 43.570312 2.4375 43.175781 3.441406 43.257812 L 23.414062 44.882812 C 24.027344 44.933594 24.546875 45.386719 24.636719 45.976562 C 24.738281 46.566406 24.328125 47.039062 23.792969 47.367188 C 21.863281 48.550781 17.671875 51.464844 17.671875 51.464844 C 20.703125 52.585938 23.964844 53.078125 27.292969 52.710938 C 28.714844 52.554688 30.09375 52.261719 31.417969 51.84375 Z M 37.425781 52.484375 C 43.472656 52.484375 48.375 47.375 48.375 41.074219 C 48.375 34.769531 43.472656 29.660156 37.425781 29.660156 C 31.378906 29.660156 26.472656 34.769531 26.472656 41.074219 C 26.472656 47.375 31.378906 52.484375 37.425781 52.484375 Z M 34.238281 35.835938 L 34.238281 34.539062 C 34.238281 33.925781 34.730469 33.429688 35.335938 33.429688 C 35.945312 33.429688 36.4375 33.925781 36.4375 34.539062 L 36.4375 35.652344 C 36.972656 35.609375 37.394531 35.585938 37.703125 35.570312 L 37.703125 34.539062 C 37.703125 33.925781 38.199219 33.429688 38.804688 33.429688 C 39.414062 33.429688 39.90625 33.925781 39.90625 34.539062 L 39.90625 35.605469 C 41.921875 35.878906 42.992188 37.125 42.992188 38.554688 C 42.992188 40.402344 41.003906 40.789062 41.003906 40.789062 L 41.003906 40.867188 C 41.003906 40.867188 43.453125 41.25 43.453125 43.5625 C 43.453125 45.089844 42.332031 46.371094 39.90625 46.605469 L 39.90625 47.421875 C 39.90625 48.035156 39.414062 48.53125 38.804688 48.53125 C 38.199219 48.53125 37.703125 48.035156 37.703125 47.421875 L 37.703125 46.621094 C 37.390625 46.605469 36.96875 46.582031 36.4375 46.539062 L 36.4375 47.421875 C 36.4375 48.035156 35.945312 48.53125 35.335938 48.53125 C 34.730469 48.53125 34.238281 48.035156 34.238281 47.421875 L 34.238281 46.355469 C 33.707031 46.308594 33.125 46.253906 32.496094 46.195312 C 31.964844 46.144531 31.5625 45.695312 31.5625 45.160156 C 31.5625 44.683594 31.945312 44.300781 32.417969 44.300781 C 32.441406 44.300781 32.46875 44.300781 32.492188 44.304688 L 33.664062 44.410156 L 33.664062 37.855469 L 32.527344 37.957031 C 32.039062 38.003906 31.609375 37.640625 31.566406 37.148438 C 31.5625 37.121094 31.5625 37.09375 31.5625 37.066406 C 31.5625 36.511719 31.980469 36.046875 32.53125 35.996094 C 33.148438 35.933594 33.71875 35.882812 34.238281 35.835938 Z M 36.4375 39.824219 L 38.503906 39.824219 C 39.332031 39.824219 39.804688 39.347656 39.804688 38.753906 C 39.804688 38.160156 39.332031 37.683594 38.503906 37.683594 L 36.4375 37.683594 Z M 36.4375 44.585938 L 38.589844 44.585938 C 39.503906 44.585938 39.957031 44.128906 39.957031 43.4375 C 39.957031 42.75 39.503906 42.289062 38.589844 42.289062 L 36.4375 42.289062 Z M 36.4375 44.585938 " fill-opacity="1" fill-rule="nonzero"/></g></svg>